<svg width="14" height="17" viewBox="0 0 14 17" fill="none" xmlns="http://www.w3.org/2000/svg">
<path d="M2.66071 16.755H11.5201C12.974 16.755 13.8178 15.9112 13.8178 14.2991V6.50192C13.8178 4.88975 12.9665 4.046 11.3393 4.046H10.2771C10.2394 2.3585 8.80049 0.957275 6.99999 0.957275C5.20702 0.957275 3.76059 2.3585 3.72293 4.046H2.66071C1.03347 4.046 0.18219 4.88975 0.18219 6.50192V14.2991C0.18219 15.9112 1.03347 16.755 2.66071 16.755ZM6.99999 2.2907C8.03208 2.2907 8.79296 3.06665 8.82309 4.046H5.17689C5.20702 3.06665 5.9679 2.2907 6.99999 2.2907ZM2.75864 15.2558C2.06556 15.2558 1.68135 14.8942 1.68135 14.1635V6.63752C1.68135 5.91431 2.06556 5.5527 2.75864 5.5527H11.2413C11.9269 5.5527 12.3186 5.91431 12.3186 6.63752V14.1635C12.3186 14.8942 11.9269 15.2558 11.4221 15.2558H2.75864Z" fill="#181818"/>
</svg>
