<svg width="16" height="17" viewBox="0 0 16 17" fill="none" xmlns="http://www.w3.org/2000/svg">
<path d="M8.00004 16.4858C12.2565 16.4858 15.7821 12.9677 15.7821 8.70372C15.7821 4.4473 12.2565 0.921631 7.99251 0.921631C3.73609 0.921631 0.217957 4.4473 0.217957 8.70372C0.217957 12.9677 3.74363 16.4858 8.00004 16.4858ZM5.92834 8.12364L5.15992 6.99362C4.73051 6.35327 4.03743 6.1122 3.33682 6.45121L2.74921 6.74501C2.26706 6.97855 2.07119 7.34769 2.07119 8.0257C2.07119 8.56058 1.91299 8.81672 1.59658 8.81672C1.53632 8.81672 1.47605 8.80919 1.42331 8.79412C1.42331 8.76399 1.42331 8.73385 1.42331 8.70372C1.42331 5.11025 4.39904 2.12699 7.99251 2.12699C8.51232 2.12699 9.01706 2.19479 9.50674 2.30779C9.26567 2.74473 8.85886 2.97074 8.85886 3.58848C8.85886 4.71097 10.3505 4.6281 10.3505 5.87866C10.3505 6.63201 9.75534 6.98608 8.44452 6.98608C7.68364 6.98608 7.16383 7.38536 7.16383 7.9805C7.16383 8.37978 7.36723 8.65098 7.81171 8.88452C8.04524 8.98999 8.13565 9.11053 8.13565 9.27626C8.13565 9.47213 7.99251 9.5776 7.75897 9.5776C7.26176 9.5776 6.61388 9.14066 5.92834 8.12364ZM8.00004 15.2804C4.76065 15.2804 2.02599 12.8622 1.51372 9.7584C1.55138 9.7584 1.58905 9.7584 1.63425 9.7584C2.4328 9.7584 2.97521 9.07286 2.97521 8.0257C2.97521 7.70176 3.02795 7.5963 3.25395 7.49083L3.73609 7.26482C3.99223 7.13675 4.22577 7.23469 4.37644 7.46069L5.22772 8.71125C6.07901 9.95428 6.94536 10.459 7.73637 10.459C8.50479 10.459 8.97186 9.99194 8.97186 9.24613C8.97186 8.81672 8.75339 8.44005 8.39932 8.21404C8.27878 8.13117 8.21098 8.09351 8.21098 8.01817C8.20345 7.9353 8.27878 7.89763 8.40685 7.89763C10.2827 7.89763 11.262 7.21209 11.262 5.87866C11.262 4.11583 9.76288 4.01789 9.76288 3.56588C9.76288 3.26454 10.1622 3.12894 10.3957 2.59406C12.829 3.56588 14.5768 5.954 14.5768 8.70372C14.5768 9.40433 14.4638 10.0899 14.2528 10.7227C13.8611 10.4063 13.5447 10.2707 13.1831 10.2707C12.8893 10.2707 12.7311 10.346 12.5578 10.3988C12.4147 10.4515 12.3469 10.3912 12.3243 10.2556C12.2414 9.6906 11.8949 9.47967 11.3374 9.47967H10.9456C10.4936 9.47967 10.1245 9.7132 9.84575 10.1426L9.72521 10.3309C9.52934 10.6323 9.3636 10.8734 9.2054 11.0316C9.0472 11.1672 8.91913 11.235 8.61026 11.3329L8.26371 11.4384C7.7439 11.6041 7.57817 12.0637 7.7213 12.5759L8.09045 13.8491C8.21851 14.3162 8.49725 14.5572 8.94926 14.5572C9.14513 14.5572 9.3862 14.4894 9.64234 14.3689L9.75534 14.3086C9.92108 14.2258 10.0492 14.1956 10.1848 14.1956C10.471 14.1956 10.6744 14.3388 10.8854 14.5949C10.0115 15.0318 9.03213 15.2804 8.00004 15.2804ZM10.1697 13.3217C9.93615 13.3217 9.66494 13.4046 9.37114 13.5251L9.14513 13.608C9.0246 13.6532 8.94173 13.6457 8.91159 13.5327L8.58766 12.4479C8.55752 12.3349 8.60272 12.2671 8.71572 12.2294C9.28827 12.0637 9.59714 11.8452 9.79301 11.6568C10.0944 11.363 10.343 10.9487 10.5614 10.6323C10.697 10.4214 10.8025 10.346 10.9381 10.346H11.3298C11.4353 10.346 11.4579 10.3837 11.4805 10.4666C11.586 10.9939 11.8723 11.3028 12.3921 11.3028C12.7687 11.3028 12.9495 11.1446 13.1831 11.1446C13.3714 11.1446 13.5824 11.2651 13.9063 11.574C13.394 12.6136 12.603 13.5101 11.6462 14.158C11.3072 13.7285 10.8778 13.3217 10.1697 13.3217Z" fill="#464646"/>
</svg>
