<svg width="14" height="15" viewBox="0 0 14 15" fill="none" xmlns="http://www.w3.org/2000/svg">
<path d="M7.00001 7.86947C8.82311 7.86947 10.2997 6.25731 10.2997 4.28353C10.2997 2.3399 8.82311 0.795532 7.00001 0.795532C5.18444 0.795532 3.69281 2.3625 3.70034 4.2986C3.70788 6.26484 5.17691 7.86947 7.00001 7.86947ZM7.00001 6.55111C5.96039 6.55111 5.07897 5.56423 5.07897 4.2986C5.07144 3.06311 5.95285 2.11389 7.00001 2.11389C8.0547 2.11389 8.92105 3.04804 8.92105 4.28353C8.92105 5.54916 8.04716 6.55111 7.00001 6.55111ZM2.29912 14.8756H11.6934C12.9967 14.8756 13.6219 14.4613 13.6219 13.5723C13.6219 11.5006 11.038 8.74336 7.00001 8.74336C2.96206 8.74336 0.370544 11.5006 0.370544 13.5723C0.370544 14.4613 0.995823 14.8756 2.29912 14.8756ZM2.06558 13.5573C1.88477 13.5573 1.81697 13.497 1.81697 13.3614C1.81697 12.2088 3.67774 10.0617 7.00001 10.0617C10.3147 10.0617 12.1755 12.2088 12.1755 13.3614C12.1755 13.497 12.1077 13.5573 11.9269 13.5573H2.06558Z" fill="#181818"/>
</svg>
